HIERARCHY
ROOT ui
{
	 OFFSET 0 0 0
	 CHANNELS 3 XPosition YPosition Z Position
	 EndSite
	 {
	 OFFSET 0 -1 0
	 }
}
ROOT li
{
	 OFFSET 0 0 0
	 CHANNELS 3 XPosition YPosition Z Position
	 EndSite
	 {
	 OFFSET 0 -1 0
	 }
}
ROOT ul
{
	 OFFSET 0 0 0
	 CHANNELS 3 XPosition YPosition Z Position
	 EndSite
	 {
	 OFFSET 0 -1 0
	 }
}
ROOT ll
{
	 OFFSET 0 0 0
	 CHANNELS 3 XPosition YPosition Z Position
	 EndSite
	 {
	 OFFSET 0 -1 0
	 }
}
ROOT tt
{
	 OFFSET 0 0 0
	 CHANNELS 3 XPosition YPosition Z Position
	 EndSite
	 {
	 OFFSET 0 -1 0
	 }
}
ROOT tb
{
	 OFFSET 0 0 0
	 CHANNELS 3 XPosition YPosition Z Position
	 EndSite
	 {
	 OFFSET 0 -1 0
	 }
}
ROOT td
{
	 OFFSET 0 0 0
	 CHANNELS 3 XPosition YPosition Z Position
	 EndSite
	 {
	 OFFSET 0 -1 0
	 }
}
ROOT v
{
	 OFFSET 0 0 0
	 CHANNELS 3 XPosition YPosition Z Position
	 EndSite
	 {
	 OFFSET 0 -1 0
	 }
}
ROOT bn
{
	 OFFSET 0 0 0
	 CHANNELS 3 XPosition YPosition Z Position
	 EndSite
	 {
	 OFFSET 0 -1 0
	 }
}
MOTION
Frames: 21
Frame Time: 0.002
0.02816672706604004	0.003323298931121826	0		0.45349114990234374	-2.27812890625	0		-0.9592040405273438	0.3012493896484375	0		-0.7186571044921874	-2.48706298828125	0		1.8151429443359375	-0.3641230773925781	0		3.35758154296875	-0.31980099487304686	0		4.32874267578125	-0.3672849426269531	0		5.972294921875	0.5019183654785156	0		-0.08176864624023437	5.97146484375	0		
-0.02149715042114258	0.005378859043121338	0		0.45174331665039064	-2.28018359375	0		-0.92700537109375	0.2964095764160156	0		-0.6566998901367187	-2.502594482421875	0		1.844110595703125	-0.378892822265625	0		3.332887451171875	-0.3193260803222656	0		4.34415380859375	-0.36273764038085937	0		5.96459716796875	0.5019980163574219	0		-0.08244130706787109	5.97238671875	0		
0.002486035108566284	-0.007240408897399902	0		0.449362548828125	-2.308197021484375	0		-0.9946040649414063	0.30291485595703127	0		-0.7206244506835937	-2.51017822265625	0		1.8443778076171875	-0.37896051025390626	0		3.29874267578125	-0.29359103393554686	0		4.33488623046875	-0.3425800476074219	0		5.97346875	0.4847253723144531	0		-0.08119561767578125	5.971296875	0		
-0.025087249755859374	0.0013716219663619995	0		0.45371151733398435	-2.30332470703125	0		-0.9902785034179687	0.30678741455078123	0		-0.6916061401367187	-2.519880615234375	0		1.8056685791015625	-0.3760921325683594	0		3.33292138671875	-0.29641061401367186	0		4.342396484375	-0.33077853393554685	0		5.97407275390625	0.50068798828125	0		-0.06478131866455078	5.978890625	0		
0.012151218414306641	0.0025142030715942384	0		0.45800616455078125	-2.299418701171875	0		-0.9860082397460938	0.30969287109375	0		-0.7283698120117188	-2.518025634765625	0		1.8519974365234375	-0.3711580505371094	0		3.3283515625	-0.24328517150878906	0		4.35505810546875	-0.3110602722167969	0		5.981689453125	0.518523193359375	0		-0.06651200866699218	5.981935546875	0		
0.01232407283782959	0.0025461230278015137	0		0.45408905029296875	-2.30329296875	0		-0.9539367065429688	0.3049847717285156	0		-0.6696275634765625	-2.537354736328125	0		1.83605908203125	-0.37575335693359374	0		3.29332568359375	-0.2514388122558594	0		4.34462744140625	-0.2937755126953125	0		5.973470703125	0.5017487487792969	0		-0.08059388732910157	5.9712939453125	0		
0.004495275974273682	0.0037947280406951905	0		0.42477664184570313	-2.279541015625	0		-0.9938496704101563	0.3029742126464844	0		-0.7156759643554688	-2.545224609375	0		1.8269068603515626	-0.3884767150878906	0		3.316766357421875	-0.23890858459472655	0		4.35990869140625	-0.28805764770507813	0		5.9726396484375	0.5028392028808594	0		-0.09470255279541015	5.9606845703125	0		
0.006429037094116211	-0.004155169010162354	0		0.47618890380859374	-2.3106416015625	0		-0.9937304077148438	0.30306808471679686	0		-0.6790513305664062	-2.56698095703125	0		1.8180982666015626	-0.38517431640625	0		3.333113037109375	-0.22918592834472656	0		4.35049365234375	-0.2677356872558594	0		5.96476123046875	0.5031208801269531	0		-0.09458548736572266	5.96077880859375	0		
0.0034518558979034423	-0.006961816787719726	0		0.4331993103027344	-2.3135224609375	0		-0.9787817993164063	0.29684576416015623	0		-0.7092064208984376	-2.577160888671875	0		1.818189697265625	-0.3850511779785156	0		3.325248046875	-0.18386659240722655	0		4.36718212890625	-0.24198970031738282	0		5.9738271484375	0.5020360412597656	0		-0.08024330139160156	5.9715751953125	0		
0.007858447074890137	0.008092511177062988	0		0.45450775146484373	-2.302860595703125	0		-0.9695615234375	0.3037869873046875	0		-0.6814089965820312	-2.588654541015625	0		1.8182501220703124	-0.3849010925292969	0		3.321170654296875	-0.18962303161621094	0		4.36391455078125	-0.2127559814453125	0		5.97809521484375	0.5110892944335937	0		-0.08018002319335937	5.97172607421875	0		
-0.015294636726379394	8.046830296516419E-4	0		0.4602291259765625	-2.315818603515625	0		-0.9786949462890625	0.2971758117675781	0		-0.6489727783203125	-2.61423291015625	0		1.797304443359375	-0.3832392578125	0		3.331887939453125	-0.15968760681152344	0		4.3622646484375	-0.19853955078125	0		5.9729375	0.5033795776367187	0		-0.08014875793457031	5.97190380859375	0		
0.00659392499923706	-0.003499569892883301	0		0.5100144958496093	-2.324770263671875	0		-0.97870751953125	0.2973808898925781	0		-0.65821826171875	-2.6238173828125	0		1.7931993408203124	-0.38694430541992186	0		3.2902099609375	-0.14452024841308594	0		4.3547861328125	-0.17516275024414063	0		5.97292529296875	0.5035752258300781	0		-0.09440447235107421	5.9614345703125	0		
-0.027405731201171873	-4.8498600721359254E-4	0		0.4539935302734375	-2.322247314453125	0		-0.9787620239257813	0.29761090087890624	0		-0.6227734985351563	-2.64541552734375	0		1.8028402099609375	-0.39994708251953126	0		3.2865029296875	-0.12920913696289063	0		4.36781982421875	-0.17124395751953125	0		5.97287109375	0.5037930908203125	0		-0.07924482727050781	5.9703134765625	0		
0.003371830940246582	-0.005949193954467773	0		0.4906721496582031	-2.33185009765625	0		-0.9678859252929688	0.2966104431152344	0		-0.6763028564453125	-2.6629306640625	0		1.7837691650390626	-0.3982594604492187	0		3.302376708984375	-0.13033404541015625	0		4.36439306640625	-0.14191624450683593	0		5.97756396484375	0.49491943359375	0		-0.07737784576416015	5.96852001953125	0		
-0.004558574199676513	0.0035084869861602783	0		0.4686940307617187	-2.324069091796875	0		-0.9598662719726563	0.30370050048828123	0		-0.6009097900390625	-2.683408203125	0		1.8025992431640625	-0.39942800903320314	0		3.285281982421875	-0.08466189575195313	0		4.3787109375	-0.12198043823242187	0		5.97742431640625	0.4951810302734375	0		-0.07848198699951171	5.96981787109375	0		
0.004304491996765137	0.005597506999969483	0		0.5152174682617188	-2.33685693359375	0		-0.9740889282226562	0.3023251953125	0		-0.6452702026367187	-2.690088134765625	0		1.7842139892578126	-0.4077151794433594	0		3.267897216796875	-0.09297563934326172	0		4.371064453125	-0.09851361846923828	0		5.9724541015625	0.5045784912109375	0		-0.08057908630371094	5.97316162109375	0		
-0.01600046157836914	0.0023819470405578615	0		0.4590093994140625	-2.335241455078125	0		-0.9743059692382813	0.3026477966308594	0		-0.5781373901367187	-2.71833349609375	0		1.799875244140625	-0.41276797485351563	0		3.268142333984375	-0.07266812133789062	0		4.36917138671875	-0.08416070556640624	0		5.97223779296875	0.5048851928710938	0		-0.07982970428466797	5.97145947265625	0		
0.0025816359519958494	-0.00471438980102539	0		0.48263134765625	-2.340455078125	0		-0.9737647094726563	0.2939708557128906	0		-0.6544431762695313	-2.71922998046875	0		1.773468505859375	-0.418826416015625	0		3.268122802734375	-0.062336318969726565	0		4.3713828125	-0.06388031005859375	0		5.97259423828125	0.48819512939453125	0		-0.08006733703613281	5.97180126953125	0		
0.003557255983352661	0.006620814800262451	0		0.4652134094238281	-2.345699462890625	0		-0.9549090576171875	0.299892578125	0		-0.6053892211914063	-2.748017578125	0		1.775933349609375	-0.42953521728515626	0		3.258656982421875	-0.02675946807861328	0		4.3625927734375	-0.04232509994506836	0		5.9605048828125	0.4968200378417969	0		-0.07935746002197265	5.9711396484375	0		
0.008138581275939942	0.0018854689598083495	0		0.4669765625	-2.342368408203125	0		-0.9610927124023437	0.3054110107421875	0		-0.600044677734375	-2.7627724609375	0		1.7756309814453124	-0.4291593017578125	0		3.254217529296875	-0.032291988372802734	0		4.37096044921875	-0.013146866798400879	0		5.97619970703125	0.49681793212890624	0		-0.07964828491210937	5.97151904296875	0		
0.007818690776824951	0.0022799599170684813	0		0.5154083862304687	-2.3531064453125	0		-0.95962109375	0.2967630615234375	0		-0.576699462890625	-2.776928955078125	0		1.7922132568359375	-0.43316012573242185	0		3.253662109375	0.0011118769645690918	0		4.353177734375	0.010651670455932617	0		5.9678828125	0.49738861083984376	0		-0.07995909881591796	5.97191357421875	0		
